<?xml version="1.0" encoding="utf-8"?>
<!-- Generator: Adobe Illustrator 16.0.0, SVG Export Plug-In . SVG Version: 6.00 Build 0)  -->
<!DOCTYPE svg PUBLIC "-//W3C//DTD SVG 1.1//EN" "http://www.w3.org/Graphics/SVG/1.1/DTD/svg11.dtd">
<svg version="1.1" id="OPTI_x5F_PIX" xmlns="http://www.w3.org/2000/svg" xmlns:xlink="http://www.w3.org/1999/xlink" x="0px"
	 y="0px" width="290px" height="80px" viewBox="1.339 0 290 80" enable-background="new 1.339 0 290 80" xml:space="preserve">
<path fill="#38BDF8" d="M35.916,54.043c-3.398,0-6.248-3.209-6.248-6.607V36.665c0-3.398,2.849-6.622,6.248-6.622h5.752v-24H13.606
	c-3.824,0-6.938,3.335-6.938,7.158V68.59c0,3.824,3.114,7.453,6.938,7.453h28.062v-22H35.916z"/>
<path fill="#06B6D4" d="M68.996,6.043H41.668v24h5.018c3.399,0,6.982,3.224,6.982,6.622v10.771c0,3.398-3.583,6.607-6.982,6.607
	h-5.018v22h27.328c3.824,0,6.672-3.629,6.672-7.453V13.201C75.668,9.378,72.82,6.043,68.996,6.043z"/>
<g>
	<path fill="#38BDF8" d="M127.24,39.945c0,5.562-1.523,10.061-4.57,13.493c-3.049,3.432-7.135,5.147-12.262,5.147
		c-5.049,0-9.077-1.716-12.084-5.147c-3.007-3.433-4.511-7.928-4.511-13.493v-7.008c0-5.542,1.498-10.039,4.496-13.49
		c2.999-3.451,7.023-5.178,12.071-5.178c5.127,0,9.219,1.727,12.277,5.178c3.057,3.451,4.586,7.948,4.586,13.49v7.008H127.24z
		 M123.719,32.876c0-4.654-1.178-8.402-3.533-11.242c-2.356-2.839-5.623-4.259-9.805-4.259c-4.102,0-7.299,1.42-9.588,4.259
		c-2.287,2.839-3.43,6.587-3.43,11.242v7.069c0,4.696,1.148,8.463,3.447,11.301c2.298,2.844,5.498,4.261,9.601,4.261
		c4.199,0,7.469-1.413,9.807-4.245c2.335-2.83,3.501-6.603,3.501-11.318V32.876z"/>
	<path fill="#38BDF8" d="M161.35,42.845c0,4.793-1.085,8.616-3.251,11.465c-2.17,2.85-5.157,4.276-8.964,4.276
		c-2.229,0-4.185-0.426-5.873-1.274c-1.683-0.848-3.063-2.051-4.125-3.608v16.569h-3.551V25.955h2.722l0.651,5
		c1.063-1.775,2.445-3.152,4.142-4.127c1.695-0.976,3.688-1.464,5.976-1.464c3.845,0,6.854,1.534,9.023,4.6
		c2.17,3.066,3.254,7.155,3.254,12.264v0.618H161.35z M157.8,42.227c0-4.063-0.809-7.377-2.426-9.94
		c-1.616-2.563-3.983-3.845-7.099-3.845c-2.35,0-4.264,0.562-5.755,1.687s-2.618,2.583-3.388,4.377v15.501
		c0.827,1.736,2,3.101,3.518,4.099c1.519,0.993,3.414,1.494,5.68,1.494c3.097,0,5.446-1.163,7.056-3.491s2.41-5.414,2.41-9.26
		v-0.622H157.8z"/>
	<path fill="#38BDF8" d="M174.838,17.759v8.195h7.045v2.9h-7.045v20.857c0,2.09,0.382,3.574,1.141,4.45
		c0.761,0.877,1.771,1.318,3.032,1.318c0.434,0,0.853-0.026,1.257-0.075c0.403-0.05,0.886-0.132,1.438-0.253l0.532,2.633
		c-0.473,0.236-1.062,0.43-1.763,0.578c-0.698,0.147-1.393,0.219-2.083,0.219c-2.249,0-4-0.711-5.253-2.131
		c-1.255-1.418-1.88-3.666-1.88-6.743V28.854h-5.531v-2.9h5.531v-8.195H174.838z"/>
	<path fill="#38BDF8" d="M192.768,16.785h-3.52v-4.97h3.52V16.785z M192.768,57.963h-3.52V25.955h3.52V57.963z"/>
</g>
<g>
	<path fill="#06B6D4" d="M214.126,42.947v15.618h-8.636V15.494h16.478c4.95,0,8.845,1.262,11.682,3.787
		c2.84,2.526,4.265,5.847,4.265,9.972c0,4.122-1.425,7.435-4.265,9.939c-2.837,2.506-6.731,3.756-11.682,3.756H214.126z
		 M214.126,36.291h7.842c2.406,0,4.23-0.652,5.473-1.968c1.24-1.31,1.863-2.984,1.863-5.013c0-2.069-0.619-3.782-1.849-5.133
		c-1.231-1.351-3.062-2.027-5.487-2.027h-7.842V36.291L214.126,36.291z"/>
	<path fill="#06B6D4" d="M252.528,18.896h-8.64v-6.477h8.64V18.896z M252.528,58.565h-8.64V26.559h8.64V58.565z"/>
	<path fill="#06B6D4" d="M271.667,36.734h0.178l4.91-10.175h9.762l-9.644,15.829l9.971,16.183h-9.731l-5.236-10.621l-5.238,10.621
		h-9.761l9.969-16.183l-9.674-15.829h9.704L271.667,36.734z"/>
</g>
</svg>
